<svg width="357" height="164" viewBox="0 0 357 164" fill="none" xmlns="http://www.w3.org/2000/svg">
<path d="M241 43.5H236.5L234.5 53.5C237.333 54 243.1 55 243.5 55C243.9 55 250.667 50.3333 254 48L253.5 14C251.1 6.8 244.5 4 241.5 3.5H237.5V11.5L244.5 16.5L245 22.5V38C244.6 42 242.167 43.3333 241 43.5Z" fill="white"/>
<path d="M230.5 13L237.5 11.5L239 3.5H231C222.6 4.3 219.5 11.8333 219 15.5V39C219 45 224.333 49.5 227 51L235 53.5L236.5 43.5C235.5 42.6667 233.5 40.9 233.5 40.5C233.5 40 230.5 35.5 230.5 35C230.5 34.5 229 22.5 229 21.5C229 20.7 230 15.5 230.5 13Z" fill="white"/>
<path d="M291 43.5H286.5L284.5 53.5C287.333 54 293.1 55 293.5 55C293.9 55 300.667 50.3333 304 48L303.5 14C301.1 6.8 294.5 4 291.5 3.5H287.5V11.5L294.5 16.5L295 22.5V38C294.6 42 292.167 43.3333 291 43.5Z" fill="white"/>
<path d="M280.5 13L287.5 11.5L289 3.5H281C272.6 4.3 269.5 11.8333 269 15.5V39C269 45 274.333 49.5 277 51L285 53.5L286.5 43.5C285.5 42.6667 283.5 40.9 283.5 40.5C283.5 40 280.5 35.5 280.5 35C280.5 34.5 279 22.5 279 21.5C279 20.7 280 15.5 280.5 13Z" fill="white"/>
<path d="M97 51.5V3.5H122V14.5L123.5 18.5H116.5V23.5L122.5 29.5V51.5H97Z" fill="white"/>
<path d="M156 51.5V3.5H164L174 17L174.5 10.5H182.5L188.5 43.5H193.5V3.5H201L202 5V51.5H156Z" fill="white"/>
<path d="M320 3.5V51.5L329.5 53V31H340L340.5 21.5L345.5 16V3.5H320Z" fill="white"/>
<path d="M104 112.5L92 111L91.5 101.5L114 100.5V131.5C114 131.9 112.333 134 111.5 135L92 133.537L92 135C80 131.8 78 124.667 78.5 121.5V97.5C79.3 88.3 86.8333 85.6667 90.5 85.5H99.5C105.1 85.5 108.833 89.8333 110 92L111.5 94L112.5 99.5L103.5 100H89.9999L91.9999 123L91.9999 125.5H104V125V112.5Z" fill="white"/>
<path d="M271.5 100.5H262.5L251 101.5V112H255V124.5V133.5H247.5C239.9 131.1 237.667 124.5 237.5 121.5V96.5C239.1 88.1 246.5 85.6667 250 85.5H259C265.8 86.7 269.5 91.3333 270.5 93.5L271.5 100.5Z" fill="white"/>
<path d="M251.5 111V103V101H272V134H254V125.5H263V111H251.5Z" fill="white"/>
<path d="M126.5 136L134.5 136.5L153.5 136L154.5 126L164 105.5L155.5 85.5H148.5L132 126H126.5V136Z" fill="white"/>
<path d="M188.5 133.5V85.5H197L204.5 100.5L212.5 85.5H220L220.5 133.5H212L211.5 116L197.5 133.5H188.5Z" fill="white"/>
<path d="M163.5 126H154.5L152 134L166.5 137.5H178V126H173L163.5 105.5L159 115L163.5 126Z" fill="white"/>
<path d="M29.5 3.5H1V12H11V51.5H20V12H29.5V3.5Z" fill="white"/>
<path d="M44.5 51.5V3.5H52.3209L56 20.5H70V3.5H78.5L82.5 9.5V51.5H70V31.5H53V51.5H44.5Z" fill="white"/>
<path d="M11.2648 51.906H10.9208V23.01L1.28877 12.088H0.858766V3.23H29.7548V3.746L39.5588 14.754V23.182H29.4968V63H21.1548L11.2648 51.906ZM19.0908 51.218V11.4H29.0668V3.918H1.54677V11.4H11.6088V51.218H19.0908ZM78.4959 3.746L88.2999 14.754V63H79.8719L70.0679 51.906H69.7239V40.21H62.5859V63H54.2439L44.3539 51.906H44.0099V3.23H52.8679V3.746L62.5859 14.754V20.344H69.7239V3.23H78.4959V3.746ZM77.8079 3.918H70.4119V21.032H52.1799V3.918H44.6979V51.218H52.1799V28.428H70.4119V51.218H77.8079V3.918ZM96.9463 3.918V51.218H121.542V39.522H114.146V43.822H104.428V28.428H115.866V21.032H104.428V11.314H114.146V14.668H121.542V3.918H96.9463ZM122.23 3.23V3.66L131.948 14.668V26.45H123.52L120.596 23.096H118.532L126.186 31.868V40.21H123.09L131.948 50.358V63H106.406L96.6023 51.906H96.2583V3.23H122.23ZM201.115 3.918H193.719V43.822H181.851V10.454H174.455V43.822H163.877V3.918H156.481V51.218H201.115V3.918ZM201.803 3.746L211.521 14.754V63H165.941L156.137 51.906H155.793V3.23H164.565V3.746L173.767 14.238V9.766H182.539V10.196L192.257 21.204V43.134H193.031V3.23H201.803V3.746ZM222.553 47.778L222.467 47.692L222.553 47.95V47.778ZM250.073 8.04599C250.073 7.93133 249.959 7.81666 249.729 7.702L250.073 8.04599ZM237.345 43.134H240.269C241.416 43.134 242.391 42.7327 243.193 41.93C243.996 41.1273 244.397 40.1527 244.397 39.006V23.182H241.731C240.527 23.182 239.495 23.612 238.635 24.472C237.775 25.2747 237.345 26.278 237.345 27.482V43.134ZM241.387 3.23C243.566 3.402 245.515 4.06133 247.235 5.208C249.013 6.35466 250.417 7.81666 251.449 9.594L259.705 18.968C261.884 21.3187 262.973 24.1567 262.973 27.482V50.272C262.973 51.992 262.629 53.626 261.941 55.174C261.311 56.722 260.422 58.098 259.275 59.302C258.129 60.4487 256.781 61.366 255.233 62.054C253.685 62.6847 252.023 63 250.245 63H241.731C239.839 63 238.062 62.6273 236.399 61.882C234.737 61.0793 233.332 59.99 232.185 58.614L231.669 58.098C231.727 58.1553 231.755 58.2127 231.755 58.27L223.585 49.068C222.095 47.9213 220.919 46.488 220.059 44.768C219.199 42.9907 218.769 41.07 218.769 39.006V16.216C218.769 14.4387 219.113 12.776 219.801 11.228C220.489 9.62266 221.407 8.24666 222.553 7.1C223.757 5.896 225.133 4.95 226.681 4.262C228.287 3.574 229.978 3.23 231.755 3.23H241.387ZM245.085 16.216V39.006C245.085 40.3247 244.598 41.4713 243.623 42.446C242.706 43.3633 241.588 43.822 240.269 43.822H231.755C230.437 43.822 229.29 43.3633 228.315 42.446C227.398 41.4713 226.939 40.3247 226.939 39.006V16.216C226.939 14.8973 227.398 13.7793 228.315 12.862C229.29 11.8873 230.437 11.4 231.755 11.4H240.269C241.588 11.4 242.706 11.8873 243.623 12.862C244.598 13.7793 245.085 14.8973 245.085 16.216ZM231.755 3.918C230.035 3.918 228.43 4.23333 226.939 4.86399C225.449 5.49466 224.13 6.38333 222.983 7.53C221.894 8.61933 221.034 9.90933 220.403 11.4C219.773 12.8907 219.457 14.496 219.457 16.216V39.006C219.457 40.6687 219.773 42.2453 220.403 43.736C221.034 45.2267 221.894 46.5453 222.983 47.692C224.13 48.7813 225.449 49.6413 226.939 50.272C228.43 50.9027 230.035 51.218 231.755 51.218H240.269C241.932 51.218 243.509 50.9027 244.999 50.272C246.49 49.6413 247.78 48.7813 248.869 47.692C250.016 46.5453 250.905 45.2267 251.535 43.736C252.166 42.2453 252.481 40.6687 252.481 39.006V16.216C252.481 14.6107 252.195 13.0913 251.621 11.658C251.048 10.2247 250.274 8.96333 249.299 7.874C248.325 6.72733 247.149 5.81 245.773 5.122C244.397 4.434 242.935 4.03266 241.387 3.918H231.755ZM272.776 47.778L272.69 47.692L272.776 47.95V47.778ZM300.296 8.04599C300.296 7.93133 300.181 7.81666 299.952 7.702L300.296 8.04599ZM287.568 43.134H290.492C291.639 43.134 292.613 42.7327 293.416 41.93C294.219 41.1273 294.62 40.1527 294.62 39.006V23.182H291.954C290.75 23.182 289.718 23.612 288.858 24.472C287.998 25.2747 287.568 26.278 287.568 27.482V43.134ZM291.61 3.23C293.789 3.402 295.738 4.06133 297.458 5.208C299.235 6.35466 300.64 7.81666 301.672 9.594L309.928 18.968C312.107 21.3187 313.196 24.1567 313.196 27.482V50.272C313.196 51.992 312.852 53.626 312.164 55.174C311.533 56.722 310.645 58.098 309.498 59.302C308.351 60.4487 307.004 61.366 305.456 62.054C303.908 62.6847 302.245 63 300.468 63H291.954C290.062 63 288.285 62.6273 286.622 61.882C284.959 61.0793 283.555 59.99 282.408 58.614L281.892 58.098C281.949 58.1553 281.978 58.2127 281.978 58.27L273.808 49.068C272.317 47.9213 271.142 46.488 270.282 44.768C269.422 42.9907 268.992 41.07 268.992 39.006V16.216C268.992 14.4387 269.336 12.776 270.024 11.228C270.712 9.62266 271.629 8.24666 272.776 7.1C273.98 5.896 275.356 4.95 276.904 4.262C278.509 3.574 280.201 3.23 281.978 3.23H291.61ZM295.308 16.216V39.006C295.308 40.3247 294.821 41.4713 293.846 42.446C292.929 43.3633 291.811 43.822 290.492 43.822H281.978C280.659 43.822 279.513 43.3633 278.538 42.446C277.621 41.4713 277.162 40.3247 277.162 39.006V16.216C277.162 14.8973 277.621 13.7793 278.538 12.862C279.513 11.8873 280.659 11.4 281.978 11.4H290.492C291.811 11.4 292.929 11.8873 293.846 12.862C294.821 13.7793 295.308 14.8973 295.308 16.216ZM281.978 3.918C280.258 3.918 278.653 4.23333 277.162 4.86399C275.671 5.49466 274.353 6.38333 273.206 7.53C272.117 8.61933 271.257 9.90933 270.626 11.4C269.995 12.8907 269.68 14.496 269.68 16.216V39.006C269.68 40.6687 269.995 42.2453 270.626 43.736C271.257 45.2267 272.117 46.5453 273.206 47.692C274.353 48.7813 275.671 49.6413 277.162 50.272C278.653 50.9027 280.258 51.218 281.978 51.218H290.492C292.155 51.218 293.731 50.9027 295.222 50.272C296.713 49.6413 298.003 48.7813 299.092 47.692C300.239 46.5453 301.127 45.2267 301.758 43.736C302.389 42.2453 302.704 40.6687 302.704 39.006V16.216C302.704 14.6107 302.417 13.0913 301.844 11.658C301.271 10.2247 300.497 8.96333 299.522 7.874C298.547 6.72733 297.372 5.81 295.996 5.122C294.62 4.434 293.158 4.03266 291.61 3.918H281.978ZM344.929 3.832H320.419V51.218H327.815V28.342H339.253V20.946H327.815V11.228H337.791V15.27H344.929V3.832ZM345.617 3.574L355.335 14.582V27.052H347.251L343.639 23.01H341.919L349.659 31.696V40.124H338.221V63H329.793L320.075 51.906H319.731V3.144H345.617V3.574ZM81.6155 129.778L81.5295 129.692L81.7015 129.95L81.6155 129.778ZM90.8175 140.098V140.27L91.2475 140.614L90.8175 140.098ZM96.4935 125.134H103.545V122.124H102.341L96.4935 115.502V125.134ZM118.509 100.968C119.656 102.229 120.545 103.691 121.175 105.354C121.806 107.017 122.121 108.823 122.121 110.772H119.455L122.121 113.782V145H100.793C98.9015 145 97.1241 144.627 95.4615 143.882C93.7988 143.079 92.3941 141.99 91.2475 140.614L90.8175 140.27L82.7335 131.068C81.2428 129.921 80.0675 128.488 79.2075 126.768C78.3475 124.991 77.9175 123.07 77.9175 121.006V98.13C77.9175 96.3527 78.2615 94.69 78.9495 93.142C79.6375 91.5367 80.5548 90.1607 81.7015 89.014C82.8481 87.8673 84.1955 86.95 85.7435 86.262C87.3488 85.574 89.0401 85.23 90.8175 85.23H99.4175C101.596 85.23 103.603 85.8033 105.437 86.95C107.329 88.0393 108.877 89.53 110.081 91.422L118.251 100.71C118.309 100.71 118.337 100.739 118.337 100.796C118.337 100.853 118.395 100.911 118.509 100.968ZM86.0015 98.13C86.0015 96.8113 86.4601 95.6933 87.3775 94.776C88.3521 93.8013 89.4988 93.314 90.8175 93.314H99.4175C100.793 93.314 101.94 93.8587 102.857 94.948C103.775 96.0373 104.233 97.3847 104.233 98.99H111.715C111.715 97.2127 111.4 95.5213 110.769 93.916C110.139 92.3107 109.25 90.9347 108.103 89.788C107.014 88.584 105.724 87.638 104.233 86.95C102.743 86.262 101.137 85.918 99.4175 85.918H90.8175C89.1548 85.918 87.5781 86.2333 86.0875 86.864C84.5968 87.4947 83.2781 88.3833 82.1315 89.53C81.0421 90.6193 80.1821 91.9093 79.5515 93.4C78.9208 94.8907 78.6055 96.4673 78.6055 98.13V121.006C78.6055 122.669 78.9208 124.245 79.5515 125.736C80.1821 127.227 81.0421 128.545 82.1315 129.692C83.2781 130.781 84.5968 131.641 86.0875 132.272C87.5781 132.903 89.1548 133.218 90.8175 133.218H111.715V103.032H92.8815V110.342H104.233V125.822H90.8175C89.4988 125.822 88.3521 125.363 87.3775 124.446C86.4601 123.471 86.0015 122.325 86.0015 121.006V98.13ZM140.098 126.166C142.105 121.121 144.054 116.305 145.946 111.718C147.895 107.074 149.873 102.258 151.88 97.27L163.662 126.166H140.098ZM171.746 126.166L155.406 85.918H148.44L132.014 126.166H126.854V135.884H133.734V133.218H170.542V135.884H177.422V126.166H171.746ZM126.51 136.572H126.166V125.478H131.67L148.01 85.23H155.75L156.094 85.918L165.554 96.668L177.25 125.478H178.11V125.994L187.742 137.002V147.666H179.916L177.594 145H144.054V147.666H136.228L126.51 136.572ZM155.32 125.478H162.716L158.932 116.534C158.531 117.509 158.129 118.483 157.728 119.458C157.384 120.375 157.04 121.321 156.696 122.296L155.32 125.478ZM196.295 116.792V85.918H188.899V133.218H195.865C198.617 128.115 201.369 122.984 204.121 117.824C206.873 112.607 209.625 107.447 212.377 102.344V133.218H219.859V85.918H212.807L196.295 116.792ZM188.555 133.906H188.211V85.23H196.983V85.66L206.443 96.41L212.377 85.23H220.547V85.66L230.179 96.668V145H221.837L212.033 133.906H211.947L206.099 145H198.273L188.555 133.906ZM240.682 129.778L240.596 129.692L240.768 129.95L240.682 129.778ZM249.884 140.098V140.27L250.314 140.614L249.884 140.098ZM255.56 125.134H262.612V122.124H261.408L255.56 115.502V125.134ZM277.576 100.968C278.723 102.229 279.611 103.691 280.242 105.354C280.873 107.017 281.188 108.823 281.188 110.772H278.522L281.188 113.782V145H259.86C257.968 145 256.191 144.627 254.528 143.882C252.865 143.079 251.461 141.99 250.314 140.614L249.884 140.27L241.8 131.068C240.309 129.921 239.134 128.488 238.274 126.768C237.414 124.991 236.984 123.07 236.984 121.006V98.13C236.984 96.3527 237.328 94.69 238.016 93.142C238.704 91.5367 239.621 90.1607 240.768 89.014C241.915 87.8673 243.262 86.95 244.81 86.262C246.415 85.574 248.107 85.23 249.884 85.23H258.484C260.663 85.23 262.669 85.8033 264.504 86.95C266.396 88.0393 267.944 89.53 269.148 91.422L277.318 100.71C277.375 100.71 277.404 100.739 277.404 100.796C277.404 100.853 277.461 100.911 277.576 100.968ZM245.068 98.13C245.068 96.8113 245.527 95.6933 246.444 94.776C247.419 93.8013 248.565 93.314 249.884 93.314H258.484C259.86 93.314 261.007 93.8587 261.924 94.948C262.841 96.0373 263.3 97.3847 263.3 98.99H270.782C270.782 97.2127 270.467 95.5213 269.836 93.916C269.205 92.3107 268.317 90.9347 267.17 89.788C266.081 88.584 264.791 87.638 263.3 86.95C261.809 86.262 260.204 85.918 258.484 85.918H249.884C248.221 85.918 246.645 86.2333 245.154 86.864C243.663 87.4947 242.345 88.3833 241.198 89.53C240.109 90.6193 239.249 91.9093 238.618 93.4C237.987 94.8907 237.672 96.4673 237.672 98.13V121.006C237.672 122.669 237.987 124.245 238.618 125.736C239.249 127.227 240.109 128.545 241.198 129.692C242.345 130.781 243.663 131.641 245.154 132.272C246.645 132.903 248.221 133.218 249.884 133.218H270.782V103.032H251.948V110.342H263.3V125.822H249.884C248.565 125.822 247.419 125.363 246.444 124.446C245.527 123.471 245.068 122.325 245.068 121.006V98.13Z" fill="#1C1C1C"/>
</svg>
