<svg width="356" height="145" viewBox="0 0 356 145" fill="none" xmlns="http://www.w3.org/2000/svg">
<path d="M11.2648 48.906H10.9208V20.01L1.28877 9.088H0.858766V0.229995H29.7548V0.745999L39.5588 11.754V20.182H29.4968V60H21.1548L11.2648 48.906ZM19.0908 48.218V8.4H29.0668V0.917997H1.54677V8.4H11.6088V48.218H19.0908ZM78.4959 0.745999L88.2999 11.754V60H79.8719L70.0679 48.906H69.7239V37.21H62.5859V60H54.2439L44.3539 48.906H44.0099V0.229995H52.8679V0.745999L62.5859 11.754V17.344H69.7239V0.229995H78.4959V0.745999ZM77.8079 0.917997H70.4119V18.032H52.1799V0.917997H44.6979V48.218H52.1799V25.428H70.4119V48.218H77.8079V0.917997ZM96.9463 0.917997V48.218H121.542V36.522H114.146V40.822H104.428V25.428H115.866V18.032H104.428V8.314H114.146V11.668H121.542V0.917997H96.9463ZM122.23 0.229995V0.659995L131.948 11.668V23.45H123.52L120.596 20.096H118.532L126.186 28.868V37.21H123.09L131.948 47.358V60H106.406L96.6023 48.906H96.2583V0.229995H122.23ZM201.115 0.917997H193.719V40.822H181.851V7.454H174.455V40.822H163.877V0.917997H156.481V48.218H201.115V0.917997ZM201.803 0.745999L211.521 11.754V60H165.941L156.137 48.906H155.793V0.229995H164.565V0.745999L173.767 11.238V6.766H182.539V7.196L192.257 18.204V40.134H193.031V0.229995H201.803V0.745999ZM222.553 44.778L222.467 44.692L222.553 44.95V44.778ZM250.073 5.04599C250.073 4.93133 249.959 4.81666 249.729 4.702L250.073 5.04599ZM237.345 40.134H240.269C241.416 40.134 242.391 39.7327 243.193 38.93C243.996 38.1273 244.397 37.1527 244.397 36.006V20.182H241.731C240.527 20.182 239.495 20.612 238.635 21.472C237.775 22.2747 237.345 23.278 237.345 24.482V40.134ZM241.387 0.229995C243.566 0.401997 245.515 1.06133 247.235 2.208C249.013 3.35466 250.417 4.81666 251.449 6.594L259.705 15.968C261.884 18.3187 262.973 21.1567 262.973 24.482V47.272C262.973 48.992 262.629 50.626 261.941 52.174C261.311 53.722 260.422 55.098 259.275 56.302C258.129 57.4487 256.781 58.366 255.233 59.054C253.685 59.6847 252.023 60 250.245 60H241.731C239.839 60 238.062 59.6273 236.399 58.882C234.737 58.0793 233.332 56.99 232.185 55.614L231.669 55.098C231.727 55.1553 231.755 55.2127 231.755 55.27L223.585 46.068C222.095 44.9213 220.919 43.488 220.059 41.768C219.199 39.9907 218.769 38.07 218.769 36.006V13.216C218.769 11.4387 219.113 9.776 219.801 8.228C220.489 6.62266 221.407 5.24666 222.553 4.1C223.757 2.896 225.133 1.95 226.681 1.262C228.287 0.573996 229.978 0.229995 231.755 0.229995H241.387ZM245.085 13.216V36.006C245.085 37.3247 244.598 38.4713 243.623 39.446C242.706 40.3633 241.588 40.822 240.269 40.822H231.755C230.437 40.822 229.29 40.3633 228.315 39.446C227.398 38.4713 226.939 37.3247 226.939 36.006V13.216C226.939 11.8973 227.398 10.7793 228.315 9.862C229.29 8.88733 230.437 8.4 231.755 8.4H240.269C241.588 8.4 242.706 8.88733 243.623 9.862C244.598 10.7793 245.085 11.8973 245.085 13.216ZM231.755 0.917997C230.035 0.917997 228.43 1.23333 226.939 1.86399C225.449 2.49466 224.13 3.38333 222.983 4.53C221.894 5.61933 221.034 6.90933 220.403 8.4C219.773 9.89067 219.457 11.496 219.457 13.216V36.006C219.457 37.6687 219.773 39.2453 220.403 40.736C221.034 42.2267 221.894 43.5453 222.983 44.692C224.13 45.7813 225.449 46.6413 226.939 47.272C228.43 47.9027 230.035 48.218 231.755 48.218H240.269C241.932 48.218 243.509 47.9027 244.999 47.272C246.49 46.6413 247.78 45.7813 248.869 44.692C250.016 43.5453 250.905 42.2267 251.535 40.736C252.166 39.2453 252.481 37.6687 252.481 36.006V13.216C252.481 11.6107 252.195 10.0913 251.621 8.658C251.048 7.22466 250.274 5.96333 249.299 4.874C248.325 3.72733 247.149 2.81 245.773 2.122C244.397 1.434 242.935 1.03266 241.387 0.917997H231.755ZM272.776 44.778L272.69 44.692L272.776 44.95V44.778ZM300.296 5.04599C300.296 4.93133 300.181 4.81666 299.952 4.702L300.296 5.04599ZM287.568 40.134H290.492C291.639 40.134 292.613 39.7327 293.416 38.93C294.219 38.1273 294.62 37.1527 294.62 36.006V20.182H291.954C290.75 20.182 289.718 20.612 288.858 21.472C287.998 22.2747 287.568 23.278 287.568 24.482V40.134ZM291.61 0.229995C293.789 0.401997 295.738 1.06133 297.458 2.208C299.235 3.35466 300.64 4.81666 301.672 6.594L309.928 15.968C312.107 18.3187 313.196 21.1567 313.196 24.482V47.272C313.196 48.992 312.852 50.626 312.164 52.174C311.533 53.722 310.645 55.098 309.498 56.302C308.351 57.4487 307.004 58.366 305.456 59.054C303.908 59.6847 302.245 60 300.468 60H291.954C290.062 60 288.285 59.6273 286.622 58.882C284.959 58.0793 283.555 56.99 282.408 55.614L281.892 55.098C281.949 55.1553 281.978 55.2127 281.978 55.27L273.808 46.068C272.317 44.9213 271.142 43.488 270.282 41.768C269.422 39.9907 268.992 38.07 268.992 36.006V13.216C268.992 11.4387 269.336 9.776 270.024 8.228C270.712 6.62266 271.629 5.24666 272.776 4.1C273.98 2.896 275.356 1.95 276.904 1.262C278.509 0.573996 280.201 0.229995 281.978 0.229995H291.61ZM295.308 13.216V36.006C295.308 37.3247 294.821 38.4713 293.846 39.446C292.929 40.3633 291.811 40.822 290.492 40.822H281.978C280.659 40.822 279.513 40.3633 278.538 39.446C277.621 38.4713 277.162 37.3247 277.162 36.006V13.216C277.162 11.8973 277.621 10.7793 278.538 9.862C279.513 8.88733 280.659 8.4 281.978 8.4H290.492C291.811 8.4 292.929 8.88733 293.846 9.862C294.821 10.7793 295.308 11.8973 295.308 13.216ZM281.978 0.917997C280.258 0.917997 278.653 1.23333 277.162 1.86399C275.671 2.49466 274.353 3.38333 273.206 4.53C272.117 5.61933 271.257 6.90933 270.626 8.4C269.995 9.89067 269.68 11.496 269.68 13.216V36.006C269.68 37.6687 269.995 39.2453 270.626 40.736C271.257 42.2267 272.117 43.5453 273.206 44.692C274.353 45.7813 275.671 46.6413 277.162 47.272C278.653 47.9027 280.258 48.218 281.978 48.218H290.492C292.155 48.218 293.731 47.9027 295.222 47.272C296.713 46.6413 298.003 45.7813 299.092 44.692C300.239 43.5453 301.127 42.2267 301.758 40.736C302.389 39.2453 302.704 37.6687 302.704 36.006V13.216C302.704 11.6107 302.417 10.0913 301.844 8.658C301.271 7.22466 300.497 5.96333 299.522 4.874C298.547 3.72733 297.372 2.81 295.996 2.122C294.62 1.434 293.158 1.03266 291.61 0.917997H281.978ZM344.929 0.831998H320.419V48.218H327.815V25.342H339.253V17.946H327.815V8.228H337.791V12.27H344.929V0.831998ZM345.617 0.573996L355.335 11.582V24.052H347.251L343.639 20.01H341.919L349.659 28.696V37.124H338.221V60H329.793L320.075 48.906H319.731V0.143997H345.617V0.573996ZM81.6155 126.778L81.5295 126.692L81.7015 126.95L81.6155 126.778ZM90.8175 137.098V137.27L91.2475 137.614L90.8175 137.098ZM96.4935 122.134H103.545V119.124H102.341L96.4935 112.502V122.134ZM118.509 97.968C119.656 99.2293 120.545 100.691 121.175 102.354C121.806 104.017 122.121 105.823 122.121 107.772H119.455L122.121 110.782V142H100.793C98.9015 142 97.1241 141.627 95.4615 140.882C93.7988 140.079 92.3941 138.99 91.2475 137.614L90.8175 137.27L82.7335 128.068C81.2428 126.921 80.0675 125.488 79.2075 123.768C78.3475 121.991 77.9175 120.07 77.9175 118.006V95.13C77.9175 93.3527 78.2615 91.69 78.9495 90.142C79.6375 88.5367 80.5548 87.1607 81.7015 86.014C82.8481 84.8673 84.1955 83.95 85.7435 83.262C87.3488 82.574 89.0401 82.23 90.8175 82.23H99.4175C101.596 82.23 103.603 82.8033 105.437 83.95C107.329 85.0393 108.877 86.53 110.081 88.422L118.251 97.71C118.309 97.71 118.337 97.7387 118.337 97.796C118.337 97.8533 118.395 97.9107 118.509 97.968ZM86.0015 95.13C86.0015 93.8113 86.4601 92.6933 87.3775 91.776C88.3521 90.8013 89.4988 90.314 90.8175 90.314H99.4175C100.793 90.314 101.94 90.8587 102.857 91.948C103.775 93.0373 104.233 94.3847 104.233 95.99H111.715C111.715 94.2127 111.4 92.5213 110.769 90.916C110.139 89.3107 109.25 87.9347 108.103 86.788C107.014 85.584 105.724 84.638 104.233 83.95C102.743 83.262 101.137 82.918 99.4175 82.918H90.8175C89.1548 82.918 87.5781 83.2333 86.0875 83.864C84.5968 84.4947 83.2781 85.3833 82.1315 86.53C81.0421 87.6193 80.1821 88.9093 79.5515 90.4C78.9208 91.8907 78.6055 93.4673 78.6055 95.13V118.006C78.6055 119.669 78.9208 121.245 79.5515 122.736C80.1821 124.227 81.0421 125.545 82.1315 126.692C83.2781 127.781 84.5968 128.641 86.0875 129.272C87.5781 129.903 89.1548 130.218 90.8175 130.218H111.715V100.032H92.8815V107.342H104.233V122.822H90.8175C89.4988 122.822 88.3521 122.363 87.3775 121.446C86.4601 120.471 86.0015 119.325 86.0015 118.006V95.13ZM140.098 123.166C142.105 118.121 144.054 113.305 145.946 108.718C147.895 104.074 149.873 99.258 151.88 94.27L163.662 123.166H140.098ZM171.746 123.166L155.406 82.918H148.44L132.014 123.166H126.854V132.884H133.734V130.218H170.542V132.884H177.422V123.166H171.746ZM126.51 133.572H126.166V122.478H131.67L148.01 82.23H155.75L156.094 82.918L165.554 93.668L177.25 122.478H178.11V122.994L187.742 134.002V144.666H179.916L177.594 142H144.054V144.666H136.228L126.51 133.572ZM155.32 122.478H162.716L158.932 113.534C158.531 114.509 158.129 115.483 157.728 116.458C157.384 117.375 157.04 118.321 156.696 119.296L155.32 122.478ZM196.295 113.792V82.918H188.899V130.218H195.865C198.617 125.115 201.369 119.984 204.121 114.824C206.873 109.607 209.625 104.447 212.377 99.344V130.218H219.859V82.918H212.807L196.295 113.792ZM188.555 130.906H188.211V82.23H196.983V82.66L206.443 93.41L212.377 82.23H220.547V82.66L230.179 93.668V142H221.837L212.033 130.906H211.947L206.099 142H198.273L188.555 130.906ZM240.682 126.778L240.596 126.692L240.768 126.95L240.682 126.778ZM249.884 137.098V137.27L250.314 137.614L249.884 137.098ZM255.56 122.134H262.612V119.124H261.408L255.56 112.502V122.134ZM277.576 97.968C278.723 99.2293 279.611 100.691 280.242 102.354C280.873 104.017 281.188 105.823 281.188 107.772H278.522L281.188 110.782V142H259.86C257.968 142 256.191 141.627 254.528 140.882C252.865 140.079 251.461 138.99 250.314 137.614L249.884 137.27L241.8 128.068C240.309 126.921 239.134 125.488 238.274 123.768C237.414 121.991 236.984 120.07 236.984 118.006V95.13C236.984 93.3527 237.328 91.69 238.016 90.142C238.704 88.5367 239.621 87.1607 240.768 86.014C241.915 84.8673 243.262 83.95 244.81 83.262C246.415 82.574 248.107 82.23 249.884 82.23H258.484C260.663 82.23 262.669 82.8033 264.504 83.95C266.396 85.0393 267.944 86.53 269.148 88.422L277.318 97.71C277.375 97.71 277.404 97.7387 277.404 97.796C277.404 97.8533 277.461 97.9107 277.576 97.968ZM245.068 95.13C245.068 93.8113 245.527 92.6933 246.444 91.776C247.419 90.8013 248.565 90.314 249.884 90.314H258.484C259.86 90.314 261.007 90.8587 261.924 91.948C262.841 93.0373 263.3 94.3847 263.3 95.99H270.782C270.782 94.2127 270.467 92.5213 269.836 90.916C269.205 89.3107 268.317 87.9347 267.17 86.788C266.081 85.584 264.791 84.638 263.3 83.95C261.809 83.262 260.204 82.918 258.484 82.918H249.884C248.221 82.918 246.645 83.2333 245.154 83.864C243.663 84.4947 242.345 85.3833 241.198 86.53C240.109 87.6193 239.249 88.9093 238.618 90.4C237.987 91.8907 237.672 93.4673 237.672 95.13V118.006C237.672 119.669 237.987 121.245 238.618 122.736C239.249 124.227 240.109 125.545 241.198 126.692C242.345 127.781 243.663 128.641 245.154 129.272C246.645 129.903 248.221 130.218 249.884 130.218H270.782V100.032H251.948V107.342H263.3V122.822H249.884C248.565 122.822 247.419 122.363 246.444 121.446C245.527 120.471 245.068 119.325 245.068 118.006V95.13Z" fill="#1C1C1C"/>
</svg>
