<svg width="19" height="19" viewBox="0 0 19 19" fill="none" xmlns="http://www.w3.org/2000/svg">
<path d="M18.3388 16.2179C18.9246 16.8036 18.9246 17.7534 18.3388 18.3392C17.753 18.925 16.8033 18.925 16.2175 18.3392L0.661142 2.78283C0.0753559 2.19704 0.0753559 1.24729 0.661142 0.661508C1.24693 0.0757213 2.19668 0.0757214 2.78246 0.661508L18.3388 16.2179Z" fill="#262626"/>
<path d="M2.78246 18.3392C2.19668 18.925 1.24693 18.925 0.661141 18.3392C0.0753551 17.7534 0.0753553 16.8036 0.661142 16.2179L16.2175 0.66151C16.8033 0.0757237 17.753 0.0757238 18.3388 0.66151C18.9246 1.2473 18.9246 2.19704 18.3388 2.78283L2.78246 18.3392Z" fill="#262626"/>
</svg>
